<svg width="28" height="27" viewBox="0 0 28 27" fill="none" xmlns="http://www.w3.org/2000/svg">
<g clip-path="url(#clip0_124_34)">
<path d="M9.11924 14.866C9.95656 13.9741 10.7274 13.0777 11.5743 12.2636C14.1513 9.78586 16.7579 7.34074 19.3525 4.88233C20.8073 3.50398 22.2744 2.13881 23.5271 0.555889C23.9316 0.0448494 24.4123 -0.0665822 24.9292 0.330703C25.6094 0.863253 26.2504 1.44617 26.8468 2.07474C27.0551 2.29065 27.1565 2.66535 27.2009 2.98293C27.2727 3.49177 26.9129 3.81083 26.4464 3.63459C26.0337 3.46538 25.6466 3.23711 25.297 2.95659C24.9398 2.6838 24.6364 2.33763 24.3114 2.02542C23.1502 3.25035 21.9628 4.50312 20.7204 5.8141C21.2468 6.30134 21.8892 6.89941 22.5356 7.49332C22.7179 7.6609 22.9274 7.80053 23.0942 7.98154C23.2481 8.14748 23.3774 8.33543 23.478 8.53946C23.5611 8.6979 23.5899 8.88013 23.5599 9.05722C23.5299 9.23431 23.4426 9.39605 23.3121 9.51672C23.1999 9.64264 23.05 9.72728 22.8859 9.75752C22.7216 9.78775 22.5524 9.76189 22.4041 9.68394C22.0923 9.53064 21.8104 9.32086 21.5721 9.06476C21.0182 8.45083 20.5063 7.79725 19.9774 7.15988C19.848 7.0039 19.7179 6.84862 19.5529 6.65089C16.3411 9.58409 13.1557 12.485 10.2049 15.6766C10.3301 15.8475 10.4409 15.9941 10.5464 16.1435C11.7967 17.92 12.3187 19.8829 11.6813 22.0002C10.9636 24.3848 9.20524 25.6416 6.88168 26.1536C5.69248 26.4076 4.45723 26.3151 3.31708 25.8867C1.58897 25.2681 0.548669 24.0145 0.172712 22.1959C-0.127647 20.7434 0.0467534 19.3291 0.595797 17.9607C0.989577 16.9801 1.61254 16.2129 2.56577 15.7393C3.27845 15.3854 3.94053 14.8903 4.68407 14.6424C6.17474 14.1459 7.694 14.0397 9.11924 14.866ZM5.53072 24.7895C5.91493 24.7351 6.26134 24.703 6.60106 24.6355C9.11469 24.1359 10.6934 22.0498 10.2346 19.5994C9.84329 17.5103 8.5306 15.7702 5.85656 16.1007C5.16864 16.1862 4.48742 16.3263 3.79998 16.4166C3.02103 16.5189 2.49497 16.9637 2.12738 17.6384C1.65594 18.5002 1.41467 19.4732 1.42774 20.4601C1.45274 22.6677 2.18037 24.085 4.29628 24.5926C4.71088 24.6927 5.14041 24.7292 5.53072 24.7899V24.7895Z" fill="#EEEEEE"/>
<path d="M5.66012 22.9329C4.89528 22.9085 4.07985 22.4414 3.58906 21.5034C3.08595 20.542 3.29002 19.5872 3.84217 18.7164C4.16741 18.203 4.63535 17.8849 5.29732 18.0006C5.46634 18.0301 5.65521 17.9567 5.83248 17.9182C6.47571 17.7721 7.14694 17.8237 7.76143 18.0666C8.41107 18.3223 8.76179 18.8419 8.87722 19.5239C9.18667 21.3494 7.8094 22.9441 5.66012 22.9329ZM5.72794 21.6211C6.69684 21.6343 7.31346 21.1615 7.45401 20.4529C7.55043 19.9663 7.36012 19.5296 6.92901 19.3947C6.4235 19.2337 5.90702 19.1112 5.3838 19.0279C5.19791 18.9994 4.89062 19.0874 4.80246 19.2286C4.49744 19.7168 4.3698 20.2792 4.6338 20.831C4.73039 21.0504 4.88283 21.2394 5.07525 21.3783C5.26765 21.5172 5.49303 21.6011 5.72794 21.6211Z" fill="#EEEEEE"/>
</g>
<defs>
<clipPath id="clip0_124_34">
<path d="M0 8C0 3.58172 3.58172 0 8 0H27.2727V26.3636H8.00001C3.58173 26.3636 0 22.7819 0 18.3636V8Z" fill="white"/>
</clipPath>
</defs>
</svg>
