<svg width="36" height="7" viewBox="0 0 36 7" fill="none" xmlns="http://www.w3.org/2000/svg">
<g clip-path="url(#clip0_176_355)">
<path d="M17.3418 6.46828C17.7313 6.46767 18.1168 6.38938 18.4758 6.23795C18.8348 6.08652 19.1602 5.86499 19.4328 5.58631C19.6929 5.32378 19.8972 5.01113 20.0334 4.66729C20.1696 4.32345 20.2349 3.95555 20.2252 3.58577C20.1822 2.10506 18.792 0.68669 17.3085 0.610262C17.0087 0.605281 16.7111 0.660974 16.4333 0.773986C16.1556 0.886998 15.9035 1.05504 15.6922 1.26799C15.3608 1.58838 15.0958 1.97121 14.9127 2.39451C14.7295 2.81782 14.6316 3.27326 14.6248 3.73455C14.6138 4.09206 14.6744 4.44817 14.8027 4.78196C14.931 5.11577 15.1245 5.42053 15.372 5.67839C15.6303 5.93428 15.937 6.13592 16.274 6.27156C16.6111 6.40718 16.9718 6.47409 17.335 6.46828H17.3418Z" fill="#333A56"/>
<path d="M30.8749 4.77024C31.3755 5.2 32.0165 5.43004 32.6756 5.41638C32.9101 5.41584 33.1438 5.39121 33.3731 5.34293C33.8452 5.25786 34.2913 5.06443 34.6762 4.77783C35.0613 4.49122 35.3747 4.11919 35.5922 3.69094C35.76 3.33973 35.8311 2.95008 35.7983 2.56214C35.7654 2.17418 35.6298 1.80199 35.4054 1.48405C34.7488 0.445802 33.2871 -0.0671712 32.0771 0.315878C30.8602 0.701422 30.0147 2.02792 30.0673 3.46964C30.0686 3.51017 30.0808 3.54963 30.1021 3.58412C30.1438 3.6508 30.187 3.73838 30.2359 3.83568C30.3888 4.18448 30.6054 4.50147 30.8749 4.77024Z" fill="#333A56"/>
<path d="M2.35925 6.37938C2.45808 6.39179 2.55759 6.398 2.65718 6.39798C3.23466 6.39313 3.7934 6.19221 4.24209 5.82808C4.53702 5.59251 4.78252 5.30079 4.96433 4.96974C5.14617 4.6387 5.26078 4.27484 5.30153 3.8992C5.45459 2.46112 4.49409 1.08292 3.20466 0.889017C2.86888 0.842346 2.5272 0.864517 2.20027 0.954186C1.87332 1.04385 1.56797 1.19916 1.30279 1.41064C0.976311 1.66616 0.704296 1.98459 0.502705 2.34716C0.301112 2.70971 0.174012 3.10909 0.129031 3.52164C0.0829809 3.85672 0.104586 4.19766 0.192489 4.52426C0.280392 4.85084 0.432817 5.15644 0.640786 5.42294C0.848755 5.68944 1.10799 5.91138 1.40317 6.07569C1.69835 6.23997 2.02348 6.34323 2.35925 6.37938Z" fill="#333A56"/>
</g>
<defs>
<clipPath id="clip0_176_355">
<rect width="36" height="6.57692" fill="white"/>
</clipPath>
</defs>
</svg>
