<svg width="20" height="23" viewBox="0 0 20 23" fill="none" xmlns="http://www.w3.org/2000/svg">
<g clip-path="url(#clip0_176_407)">
<path d="M1.80956 5.15432C1.44195 5.09814 1.13793 5.06489 0.840429 5.00324C0.30782 4.89295 0.0354478 4.64759 0.0289261 4.30102C0.022187 3.9371 0.305416 3.62584 0.856829 3.55923C1.64433 3.46412 2.44164 3.43749 3.23566 3.39959C3.66501 3.37893 4.09628 3.39597 4.59335 3.39597C4.52128 3.08018 4.46969 2.83418 4.4086 2.59047C4.27988 2.10222 4.34831 1.58587 4.60035 1.14315C4.93731 0.528704 5.45078 0.154363 6.1835 0.131127C7.52169 0.0887178 8.86039 0.0648314 10.1997 0.0594614C11.0862 0.055434 11.9731 0.094667 12.8597 0.114701C12.9863 0.117593 13.1134 0.117078 13.2396 0.125959C14.144 0.189366 14.7227 0.630425 14.9306 1.47227C15.0247 1.85344 15.0368 2.25341 15.079 2.64562C15.1007 2.84803 15.107 3.05187 15.1224 3.28588C15.2683 3.30679 15.4154 3.31954 15.5629 3.32409C16.5397 3.29786 17.5162 3.25924 18.4932 3.23899C18.7448 3.2287 18.9968 3.25276 19.2412 3.31047C19.4375 3.35409 19.6138 3.45656 19.7441 3.60274C19.8744 3.74891 19.9517 3.93102 19.9645 4.12215C19.9983 4.31921 19.9672 4.52136 19.8757 4.70103C19.7841 4.88072 19.6363 5.02919 19.4527 5.12624C19.301 5.21402 19.1347 5.27886 18.9461 5.36788C18.9461 5.86832 18.9282 6.36464 18.9491 6.8594C19.0731 9.79503 19.2436 12.7302 19.1287 15.6693C19.0872 16.7321 19.0115 17.7983 18.8585 18.8508C18.7736 19.4354 18.5257 20.0052 18.3 20.563C18.1933 20.8304 18.0247 21.0717 17.8067 21.2689C17.5887 21.4663 17.3268 21.6145 17.0405 21.7028C16.5115 21.8751 15.9683 22.0055 15.4167 22.0925C14.9138 22.1537 14.4079 22.1877 13.9011 22.1943C11.931 22.2873 9.96155 22.3975 7.99035 22.4582C7.15935 22.4917 6.32685 22.4575 5.50198 22.3561C3.37991 22.0725 2.22652 20.9615 1.89065 18.9438C1.79114 18.3849 1.73581 17.8196 1.72512 17.2529C1.70265 14.0058 1.69452 10.7586 1.70076 7.51144C1.70185 6.74064 1.76999 5.96963 1.80956 5.15432ZM3.43448 5.27979C3.53231 6.88263 3.60477 14.7299 3.80021 17.0928C3.85782 17.7896 4.02674 18.4797 4.17131 19.1679C4.31544 19.8538 4.80337 20.2528 5.50283 20.3602C6.28544 20.4803 7.08144 20.596 7.87057 20.5904C9.84241 20.5765 11.8145 20.512 13.7847 20.4273C14.5391 20.3948 15.2896 20.2602 16.0394 20.1557C16.176 20.1394 16.3039 20.0825 16.4044 19.9931C16.505 19.9037 16.5733 19.7864 16.5996 19.6579C16.7034 19.2594 16.8377 18.8628 16.8872 18.4574C17.1719 16.1294 17.1133 13.7928 17.0381 11.4569C16.9789 9.6201 16.9099 7.78355 16.8446 5.94691C16.8386 5.78168 16.8267 5.61583 16.8186 5.47136C12.2057 5.40743 8.08621 5.34434 3.4348 5.27979H3.43448ZM6.33662 3.35899C8.61043 3.43717 10.8391 3.43376 13.0822 3.33431V1.90611C10.8144 1.83383 8.58847 1.75617 6.33662 1.9657V3.35899Z" fill="#333A56"/>
<path d="M13.6866 12.4151C13.6629 11.3059 13.6074 10.1817 13.5536 9.09438L13.5525 9.07372C13.5331 8.67952 13.5142 8.28532 13.4955 7.8911C13.4872 7.75335 13.46 7.61721 13.4145 7.48617C13.3149 7.18669 13.09 7.02879 12.7989 7.05492C12.6226 7.06876 12.3189 7.15498 12.2649 7.5757C12.2562 7.65139 12.2518 7.72748 12.2518 7.80362C12.2344 9.1709 12.103 13.6912 12.1017 13.7372C12.0771 14.8239 12.0517 15.9472 12.0343 17.0614C12.0253 17.3684 12.0544 17.6752 12.1213 17.9755C12.1536 18.1345 12.2439 18.2776 12.3763 18.3797C12.5088 18.4817 12.6749 18.536 12.8453 18.5331C12.8653 18.5331 12.8855 18.5324 12.9058 18.5311C13.0742 18.5266 13.2354 18.4654 13.3607 18.3585C13.4859 18.2515 13.5671 18.1058 13.5897 17.9472C13.6494 17.6171 13.6821 17.2832 13.6876 16.9483L13.6934 16.1797C13.703 14.9465 13.7134 13.6714 13.6866 12.4151Z" fill="#333A56"/>
<path d="M7.86971 7.12735H7.86918C7.76072 7.12696 7.6538 7.1516 7.55758 7.19919C7.46137 7.24676 7.37876 7.31587 7.31689 7.4005C7.2121 7.57863 7.15297 7.7777 7.1443 7.98159C7.12582 8.25784 7.10644 8.53397 7.08665 8.81682C7.01872 9.78972 6.94831 10.7958 6.91809 11.7887C6.87461 13.2008 6.85995 14.6358 6.84527 16.0235C6.84086 16.4482 6.83612 16.873 6.83106 17.2977C6.8308 17.4716 6.85638 17.6446 6.90711 17.8117C7.0257 18.2109 7.31104 18.459 7.65169 18.459H7.66257C8.01942 18.4531 8.30459 18.1854 8.38883 17.7769C8.43036 17.5606 8.44793 17.341 8.44117 17.1213C8.42225 15.9936 8.39906 14.8663 8.3771 13.7952L8.3572 12.8267L8.37997 11.6765C8.40475 10.4306 8.42809 9.25282 8.44689 8.06926C8.45805 7.87081 8.42711 7.67224 8.35593 7.48537C8.31226 7.39221 8.24502 7.31077 8.16019 7.2483C8.07535 7.18582 7.97556 7.14429 7.86971 7.12735Z" fill="#333A56"/>
</g>
<defs>
<clipPath id="clip0_176_407">
<rect width="20" height="22.5126" fill="white"/>
</clipPath>
</defs>
</svg>
