<svg width="22" height="20" viewBox="0 0 22 20" fill="none" xmlns="http://www.w3.org/2000/svg">
<g clip-path="url(#clip0_176_405)">
<path d="M0.00714623 19.3032C0.0181397 19.2226 0.0332311 19.1426 0.0523672 19.0636C0.337793 18.0544 0.632143 17.0476 0.907862 16.0357C0.933702 15.919 0.983299 15.8089 1.05355 15.7123C1.1238 15.6156 1.21318 15.5347 1.3161 15.4743C1.41866 15.4135 1.51304 15.3398 1.59689 15.255C4.87889 11.9182 8.37914 8.81589 11.8295 5.65973C13.2776 4.33517 14.6746 2.95457 16.1175 1.62413C16.6653 1.11895 17.2688 0.67263 17.8626 0.220174C18.184 -0.0248265 18.3766 -0.0249083 18.6746 0.221758C19.3669 0.794653 20.0547 1.37448 20.7189 1.97957C21.1517 2.37378 21.1587 2.80649 20.7495 3.22824C20.1659 3.82965 19.5534 4.4028 18.9533 4.98807C18.889 5.05079 18.8221 5.11087 18.7608 5.1771C16.5859 7.54219 14.2085 9.69809 11.8496 11.871C10.1526 13.4344 8.39663 14.9339 6.67341 16.4691C6.18119 16.9076 5.70779 17.3675 5.23167 17.8237C4.54411 18.4945 3.70321 18.9863 2.78242 19.2562C2.07922 19.4611 1.3866 19.7035 0.679993 19.8948C0.231167 20.0169 -0.0183085 19.7835 0.00714623 19.3032ZM16.3398 2.78395C16.0432 3.03001 15.7599 3.25 15.4931 3.48859C12.231 6.4055 8.96977 9.32335 5.70927 12.2421C4.60501 13.2333 3.56143 14.2904 2.5842 15.4076C2.45964 15.5492 2.34732 15.7018 2.22154 15.8591L2.71384 16.3951C7.66483 12.1649 12.3034 7.62316 17.3208 3.39588L16.3398 2.78395ZM3.853 17.6819C6.04482 16.1234 17.3041 5.61263 18.2161 4.27087L17.875 3.86737C17.7537 3.96202 17.6563 4.02965 17.568 4.10816C14.6036 6.75026 11.6323 9.38449 8.67961 12.0398C6.91947 13.6226 5.20857 15.2615 3.32535 16.7017C3.25606 16.7475 3.184 16.789 3.10957 16.8258L3.853 17.6819ZM17.1301 1.92517L18.9145 3.58237L19.9905 2.66036L18.3214 1.01911L17.1301 1.92517ZM1.44749 16.6052C1.35695 16.9967 1.28365 17.2705 1.23501 17.5486C1.21959 17.6486 1.23912 17.7509 1.2903 17.8381C1.45221 18.0874 1.63547 18.3228 1.82502 18.5837L2.72731 18.2291L1.44749 16.6052Z" fill="#333A56"/>
</g>
<defs>
<clipPath id="clip0_176_405">
<rect width="21.0811" height="20" fill="white"/>
</clipPath>
</defs>
</svg>
