<svg width="30" height="29" viewBox="0 0 30 29" fill="none" xmlns="http://www.w3.org/2000/svg">
<path d="M18.5817 28.8238C15.7988 28.8238 13.0158 28.8094 10.2331 28.8284C7.99579 28.8437 5.75951 28.9125 3.52247 28.9289C2.89311 28.9289 2.26461 28.8787 1.64226 28.7793C0.30167 28.5749 -0.231718 27.732 0.214723 26.3721C0.520007 25.4612 0.918959 24.5888 1.40432 23.7707C3.46072 20.267 6.45281 17.9917 10.0387 16.526C11.9854 15.7137 14.0545 15.2815 16.1461 15.2502C19.2732 15.2214 22.1519 16.0638 24.6103 18.2535C26.2885 19.728 27.6601 21.556 28.6382 23.6219C28.9104 24.1994 29.2172 24.7633 29.4353 25.3633C29.6447 25.9172 29.791 26.4958 29.8713 27.0864C29.9788 27.9714 29.5143 28.5581 28.682 28.6694C28.1013 28.7532 27.5163 28.7997 26.9302 28.8089C24.1474 28.8224 21.3644 28.8152 18.5817 28.8152V28.8238ZM27.7242 26.664C27.735 26.5698 27.7341 26.4746 27.7215 26.3807C26.8351 23.9373 25.6103 21.7288 23.718 19.9989C22.2582 18.6644 20.6207 17.704 18.6755 17.4436C16.434 17.1436 14.213 17.2064 12.0221 17.8617C7.87732 19.1013 4.57031 21.5415 2.30569 25.4754C2.04802 25.9228 1.84349 26.4046 1.60654 26.8849C1.67855 26.9267 1.75369 26.9622 1.83117 26.991C2.60659 27.1719 3.37986 27.0655 4.16189 27.0191C5.7871 26.9224 7.41678 26.8808 9.04479 26.8719C14.371 26.8428 19.6973 26.845 25.0235 26.818C25.9101 26.813 26.7952 26.7191 27.7246 26.664H27.7242Z" fill="#EEEEEE"/>
<path d="M15.5444 0.0945517C17.6885 0.0391145 19.4798 1.12544 20.8399 3.09973C21.1605 3.56521 21.5473 3.99738 21.7815 4.50791C22.3047 5.64903 22.7381 6.82129 22.46 8.15313C22.1989 9.40377 21.8585 10.6081 21.0998 11.6332C19.7507 13.4541 18.0307 14.5799 15.8324 14.8598C13.8537 15.1119 11.9722 14.8007 10.2156 13.8124C8.40631 12.7946 7.37691 11.1476 7.00318 9.03139C6.44068 5.8457 8.01073 2.9886 10.488 1.46954C11.9871 0.550034 13.6059 0.0865936 15.5444 0.0945517ZM20.2424 6.56679C20.3407 5.76369 20.0379 5.12232 19.5687 4.53787C19.3856 4.30978 19.2201 4.06509 19.0296 3.84456C18.3398 3.04631 17.5534 2.4148 16.5072 2.24768C15.0405 1.99003 13.5348 2.19954 12.1803 2.84979C10.4874 3.67622 9.22446 4.93617 8.93349 7.03118C8.59408 9.47514 9.78223 11.6623 11.8953 12.3843C13.1615 12.8044 14.4986 12.9279 15.8141 12.7461C17.6125 12.5276 19.7294 10.5653 20.0153 8.55119C20.1087 7.89242 20.1677 7.22801 20.2424 6.56613V6.56679Z" fill="#EEEEEE"/>
</svg>
