<svg width="30" height="28" viewBox="0 0 30 28" fill="none" xmlns="http://www.w3.org/2000/svg">
<path d="M29.9121 18.8653C29.8617 16.7736 29.8221 14.6449 29.7849 12.5869L29.7441 10.4545C29.7273 9.57864 29.5317 8.68836 29.1285 7.65104C28.8735 6.97313 28.3988 6.39954 27.7797 6.02119C26.2629 5.08906 24.7869 4.61163 23.2653 4.56138C21.8505 4.51351 20.4105 4.51112 19.0173 4.51004C18.3765 4.50873 17.7429 4.50753 17.1093 4.50274C17.0505 4.50155 16.9905 4.49795 16.9197 4.49077L16.7301 4.47403L16.8261 4.31128C16.8609 4.25384 16.8885 4.20718 16.9197 4.16171C17.0745 3.94165 17.2293 3.72017 17.3841 3.5L17.4189 3.45095C17.8005 2.9089 18.1941 2.35007 18.5673 1.79127C18.7239 1.55268 18.8365 1.28813 18.8997 1.01005C18.932 0.847143 18.9105 0.678181 18.8385 0.528463C18.7665 0.378746 18.6477 0.256305 18.5001 0.17948C18.3608 0.107822 18.202 0.0831985 18.0475 0.109309C17.8929 0.13542 17.7512 0.210849 17.6433 0.324262C17.4742 0.50177 17.3279 0.699542 17.2077 0.912999L17.1513 1.0111C16.5513 2.03657 15.9321 3.09555 15.3429 4.15812C15.1353 4.53145 14.8677 4.65471 14.4741 4.55779L14.4141 4.5434L14.3913 4.48598C14.3421 4.36273 14.2929 4.2383 14.2449 4.11385C14.1117 3.77283 13.9761 3.42342 13.8165 3.08837C13.6661 2.77578 13.4783 2.48248 13.2573 2.21487C13.1959 2.13595 13.1173 2.07192 13.0275 2.02758C12.9377 1.98323 12.8391 1.95973 12.7389 1.95881C12.6467 1.95936 12.5555 1.97722 12.4701 2.01145C12.1341 2.13948 11.9601 2.40034 11.9925 2.72581C12.0274 3.04851 12.1024 3.36566 12.2157 3.66992C12.3082 3.899 12.4153 4.12199 12.5361 4.3376C12.5709 4.40102 12.6057 4.46804 12.6429 4.53744L12.7269 4.69897L12.3669 4.7253C12.1413 4.74085 11.9397 4.75403 11.7381 4.77197C11.1669 4.81984 10.5945 4.86569 10.0209 4.90957L9.97049 4.91436C8.52089 5.02683 7.02089 5.14409 5.54609 5.31998C4.58969 5.43486 3.63929 5.73044 2.75489 6.03317C2.09609 6.25813 1.24769 6.7284 0.953692 7.68446C0.615292 8.78412 0.303291 9.86222 0.202491 10.9583C0.0872912 12.223 0.0920906 13.5214 0.0968906 14.7767C0.0980906 15.0806 0.099293 15.3808 0.099293 15.6812C0.096893 16.922 0.114897 18.1832 0.132897 19.4025V19.4324C0.141297 19.9422 0.148488 20.4519 0.154488 20.9617C0.156888 21.1687 0.1545 21.3745 0.1521 21.5815C0.137494 22.0506 0.151115 22.5201 0.192897 22.9875C0.474897 25.5422 1.55369 26.855 3.91529 27.5203C5.08769 27.8517 6.31289 27.8636 7.49969 27.8743L8.42969 27.884C9.93089 27.8996 11.4825 27.915 13.0341 27.915C16.6269 27.915 19.3689 27.8277 21.9285 27.6326C22.9017 27.5584 23.8857 27.4005 24.8373 27.2485C25.2081 27.1887 25.5765 27.1288 25.9437 27.075C27.2313 26.8847 28.1721 26.1333 28.7409 24.8422C28.8605 24.5822 28.9666 24.3162 29.0589 24.0453C29.6721 22.181 29.9505 20.4866 29.9121 18.8653ZM27.4017 23.0988C27.3909 23.1347 27.3801 23.1694 27.3681 23.2053C27.3465 23.2699 27.3273 23.3298 27.3117 23.392C26.9757 24.7214 26.2497 25.3902 25.0281 25.4967C24.3297 25.5577 23.6217 25.6475 22.9389 25.7336C22.0005 25.8509 21.0321 25.9743 20.0733 26.0245C18.4281 26.1131 16.7721 26.1393 15.0201 26.1668C14.2365 26.1788 13.4337 26.1919 12.6009 26.2111C12.0873 26.2003 11.5601 26.1897 11.0193 26.1789L10.8825 26.1765C9.15569 26.143 7.37011 26.1083 5.53771 26.0471C4.98572 26.0158 4.44065 25.9091 3.91771 25.7302C2.77051 25.3688 2.11169 24.5156 1.90409 23.1228C1.83015 22.5957 1.79047 22.0646 1.78529 21.5324C1.77209 20.9593 1.75849 20.3854 1.74448 19.8106C1.69888 17.9391 1.65209 16.0054 1.66169 14.1029C1.65007 12.3419 1.87898 10.5876 2.34211 8.88823C2.55451 8.13558 2.97569 7.69878 3.66569 7.5145C3.79889 7.4798 3.93329 7.44272 4.06649 7.40682C4.81409 7.2034 5.58569 6.99401 6.35969 6.91504C11.5089 6.39333 15.8421 6.15044 19.9965 6.15044C20.6361 6.15044 21.2805 6.15641 21.9141 6.16837C23.0661 6.18991 24.4149 6.29279 25.6905 6.89587C25.8045 6.94972 25.9413 7.01313 26.0829 7.07296C26.9529 7.43792 27.4341 8.02904 27.5517 8.88221C27.5829 9.11554 27.6213 9.35248 27.6585 9.57983C27.7594 10.1307 27.8243 10.6875 27.8529 11.2467C27.8865 12.4062 27.8985 13.5847 27.9105 14.7239C27.9213 15.8367 27.9333 16.989 27.9657 18.1234C28.0198 20.0487 27.8409 21.6294 27.4017 23.0988Z" fill="#775ADA"/>
<path d="M25.6631 12.4508C25.5287 10.4764 24.4571 9.16019 22.5647 8.64566C21.8713 8.45825 21.1644 8.32501 20.4503 8.24718C19.0879 8.09634 17.7182 8.02205 16.3475 8.02463C15.1979 8.02463 14.0063 8.07249 12.7619 8.16942C10.3235 8.35848 8.34829 8.72705 6.54589 9.33013C4.85629 9.89611 4.0067 10.9933 3.8711 12.7846C3.8063 13.645 3.78109 14.5221 3.75709 15.3704C3.74629 15.7234 3.6827 17.4956 3.7007 17.9646C3.7415 19.02 3.78349 20.1113 3.89029 21.1822C4.08949 23.1925 5.0387 24.1797 7.0631 24.4848C7.99642 24.6311 8.94094 24.6943 9.8855 24.6739L10.0067 24.6703C12.6299 24.5901 15.3431 24.5075 18.0011 24.2886C19.5959 24.1569 21.1859 23.7968 22.5311 23.4617C24.1175 23.0669 25.1255 21.9516 25.4459 20.2393C25.5078 19.9384 25.5467 19.6331 25.5623 19.3263C25.6103 17.7241 25.6487 16.1339 25.6763 14.5998L25.6811 14.3498C25.6931 13.7241 25.7063 13.0802 25.6631 12.4508ZM23.8007 14.2014C23.7899 15.6289 23.7755 17.0265 23.7191 18.4385C23.6908 19.0705 23.606 19.6988 23.4659 20.3159C23.2655 21.211 22.6919 21.7626 21.8075 21.9122C21.4823 21.9672 21.1571 22.0246 20.8319 22.0809C19.6799 22.2819 18.4907 22.489 17.3123 22.6122C16.1699 22.7306 15.0047 22.7916 13.6559 22.8634L13.6451 22.7438L13.6511 22.8634L13.6259 22.8646C12.9671 22.8993 12.2855 22.9352 11.5199 22.9819H11.5067C11.2691 22.9699 10.9847 22.958 10.6667 22.9448H10.6487C9.7079 22.9065 8.5403 22.8586 7.3535 22.7593C6.2027 22.6624 5.8271 22.301 5.6063 21.0745C5.31309 19.4415 5.18965 17.7826 5.2379 16.1243L5.2511 15.6708C5.2739 14.8559 5.2967 14.0135 5.3651 13.1891C5.4515 12.1516 6.0803 11.4409 7.2335 11.0759C8.7995 10.5805 10.5287 10.2706 12.6731 10.1019C13.8767 10.0062 15.0551 9.95833 16.1747 9.95833C17.6144 9.95534 19.053 10.0384 20.4827 10.2072C21.0924 10.2851 21.6948 10.4123 22.2839 10.5877C23.1731 10.8438 23.6591 11.4408 23.7287 12.3634C23.7815 13.0754 23.8043 13.6593 23.8007 14.2014Z" fill="#775ADA"/>
</svg>
