<svg width="30" height="33" viewBox="0 0 30 33" fill="none" xmlns="http://www.w3.org/2000/svg">
<path d="M29.6725 19.0887L29.6332 17.5875C29.6197 17.0461 29.5747 16.4984 29.5316 15.9686L29.5045 15.6341C29.4666 15.1547 29.2026 14.8909 28.7613 14.8909H28.6917C28.0094 14.8918 27.3041 14.8928 26.6099 14.9163C25.8782 14.9413 25.1345 14.9753 24.4156 15.0083C23.0237 15.0722 21.5839 15.1382 20.1694 15.1402C17.9859 15.1436 15.7658 15.1111 13.6183 15.0802C12.1055 15.0585 10.541 15.0359 9.00198 15.0259C8.20617 15.0208 7.39927 15.0597 6.61859 15.0973C6.38257 15.1087 6.14644 15.1198 5.91023 15.1304C6.0132 15.0826 6.11643 15.0354 6.22102 14.9901C7.74058 14.328 9.25986 13.6651 10.7789 13.0016C14.8464 11.2261 19.0522 9.3901 23.1971 7.60362C25.4145 6.64797 27.2854 6.04026 29.0848 5.69098C29.4799 5.61438 29.6929 5.33883 29.6545 4.9541C29.6172 4.68566 29.5268 4.42743 29.3886 4.19469C29.1647 3.78348 28.9202 3.38398 28.6559 2.99773C28.0256 2.08025 27.3817 1.17799 26.8912 0.494769C26.5771 0.0569418 26.1833 -0.0913707 25.7218 0.0540736C25.4091 0.15253 25.0885 0.246916 24.7785 0.338311C24.1935 0.510644 23.5893 0.688808 23.0054 0.903104C18.5399 2.54428 12.6756 4.76209 6.91577 7.36732C5.08293 8.19639 3.23536 9.07354 1.44861 9.92177L0.759419 10.2485C0.378067 10.4294 0.137792 10.6711 0.0431965 10.967C-0.0493711 11.2602 0.00697582 11.5927 0.210894 11.9547C0.81908 13.0617 1.27603 14.2461 1.5694 15.4756C1.60048 15.5991 1.64036 15.7201 1.67888 15.8369C1.71212 15.9371 1.74523 16.0373 1.77252 16.139C1.79117 16.2083 1.81306 16.278 1.83388 16.3476C1.89856 16.5242 1.937 16.7094 1.94792 16.8971C1.94724 17.2154 1.92751 17.5412 1.90859 17.8563C1.88481 18.2494 1.86036 18.656 1.87158 19.058C1.92793 21.0924 2.00805 23.2824 2.12332 25.9498C2.15035 26.576 2.19089 27.2116 2.22954 27.8262C2.28292 28.6691 2.33765 29.5407 2.35981 30.3975C2.39535 31.8051 2.64104 32.0775 4.00225 32.2195C4.09685 32.2295 4.19225 32.2346 4.28739 32.2386C5.28739 32.2807 6.30509 32.3309 7.28901 32.3795C9.50807 32.4891 11.8025 32.6025 14.0617 32.629C17.0306 32.6636 20.049 32.6378 22.9682 32.6127C24.461 32.5999 26.0048 32.5868 27.5229 32.5817C27.8272 32.5922 28.129 32.6407 28.4214 32.7258C28.5368 32.7585 28.6562 32.7759 28.776 32.7771C29.1531 32.7771 29.4325 32.5768 29.5939 32.1856C29.6749 32.0005 29.7224 31.8024 29.7343 31.6004C29.747 31.2312 29.7621 30.8617 29.7772 30.4923C29.8205 29.4382 29.8652 28.3484 29.851 27.2752C29.8158 24.5459 29.7429 21.7716 29.6725 19.0887ZM2.97346 15.0184L1.38482 11.4137L5.72048 9.51652L5.37023 13.8023L2.97346 15.0184ZM27.9778 16.2508L27.8406 30.8615C25.3874 30.9897 22.9459 30.9945 20.5839 30.9992L19.9152 31.0006C17.4052 31.0071 14.9152 30.9725 11.9477 30.9191C10.0948 30.886 8.27969 30.8376 6.35807 30.7856C5.56158 30.7643 4.75874 30.7431 3.94955 30.7222L3.84913 29.738C3.41548 25.4998 2.96724 21.1181 3.09238 16.7447C3.15765 16.7358 3.2232 16.7261 3.28915 16.7166C3.51077 16.6846 3.74009 16.6513 3.96577 16.637C7.45982 16.4165 11.0098 16.4947 14.3463 16.5938C16.6945 16.6636 19.2517 16.6711 22.3952 16.6179C23.5006 16.599 24.6212 16.5092 25.7048 16.4218C26.1851 16.3832 26.6817 16.3433 27.1698 16.3101C27.3694 16.2966 27.5691 16.2815 27.7901 16.2648L27.9778 16.2508ZM16.221 8.87677L12.2156 10.6624L12.2967 9.77075C12.385 8.79297 12.4682 7.87139 12.5487 6.94943C12.5479 6.848 12.5804 6.74915 12.6413 6.66825C12.7022 6.58734 12.788 6.52892 12.8854 6.50211C13.8775 6.11534 14.8568 5.71933 15.8936 5.29997C16.1958 5.17785 16.5021 5.05422 16.8125 4.92911C16.7468 5.264 16.6714 5.59306 16.5979 5.91315C16.3698 6.90179 16.1551 7.83746 16.2212 8.87716L16.221 8.87677ZM17.6576 8.21717C17.6922 7.97527 17.726 7.73745 17.759 7.50378C17.9014 6.49884 18.0359 5.54933 18.187 4.60877C18.207 4.54805 18.2387 4.49193 18.2805 4.44371C18.3222 4.3955 18.3732 4.35612 18.4302 4.32791C19.4179 3.93123 20.4021 3.55249 21.4437 3.1516L22.1643 2.87402C22.1545 2.9624 22.1399 3.05015 22.1206 3.13691L22.0201 3.54936C21.7893 4.49685 21.5505 5.47668 21.2979 6.43504C21.2609 6.5637 21.1767 6.67348 21.0624 6.74234C20.1824 7.13617 19.2901 7.51833 18.3455 7.92275L17.6576 8.21717ZM23.2387 5.79826L23.7747 2.27867C24.3116 1.98642 25.0432 1.81449 25.6906 1.67584C25.7724 1.66284 25.8559 1.67983 25.9262 1.72375L26.0656 1.89937C26.6624 2.65036 27.2786 3.42563 27.6895 4.36484L23.2387 5.79826ZM6.75955 12.7334C6.77623 12.2595 6.79423 11.7856 6.81359 11.3118C6.83832 10.6958 6.86305 10.0797 6.88251 9.46343C6.89224 9.15109 6.9105 8.98364 7.19334 8.86957C8.08523 8.5082 8.98494 8.12456 9.85548 7.75341C10.267 7.57786 10.6788 7.4029 11.0908 7.22853C11.099 7.22523 11.1076 7.22291 11.1164 7.2216L10.5405 11.4069L6.78144 13.1119C6.7805 13.101 6.7794 13.0902 6.77846 13.0794C6.76515 12.9645 6.75908 12.8488 6.76023 12.7331L6.75955 12.7334Z" fill="#482FF7"/>
<path d="M24.8591 24.7922C24.8566 24.6523 24.8539 24.5077 24.8417 24.3644C24.8201 24.1131 24.7994 23.8616 24.7797 23.6099C24.717 22.8323 24.6522 22.0281 24.5479 21.2407C24.4458 20.4693 24.1091 20.1723 23.3058 20.1446C23.0539 20.1359 22.802 20.1259 22.5501 20.1158C21.9343 20.0914 21.2976 20.066 20.6702 20.0615C17.6876 20.0378 14.6026 20.0132 11.5187 20.0186C10.8868 20.0197 10.2465 20.0556 9.62677 20.0902C9.2015 20.1139 8.76189 20.1385 8.32946 20.1516C7.80351 20.1673 7.46608 20.4149 7.32649 20.8872C7.2455 21.1412 7.20486 21.4064 7.20608 21.673C7.22851 22.5361 7.26811 23.4702 7.3277 24.5288C7.35473 25.017 7.39136 25.541 7.47312 26.066C7.59285 26.836 8.02109 27.2805 8.78231 27.4241C9.26404 27.5231 9.75247 27.5855 10.2435 27.6111C11.9304 27.6684 13.6458 27.7141 15.3047 27.7583C15.9043 27.7742 16.5039 27.7903 17.1035 27.8066L17.2368 27.8104L17.2386 27.767C17.6929 27.767 18.1471 27.7674 18.6014 27.7683C20.1128 27.7701 21.6756 27.7721 23.2131 27.7556C23.417 27.7532 23.9202 27.7193 24.1897 27.4524C24.7935 26.8549 25.0324 26.1623 24.8999 25.3948C24.871 25.1953 24.8574 24.9939 24.8591 24.7922ZM23.2486 26.0914C21.7499 26.3663 10.3642 26.3283 8.9765 26.041L8.49001 21.5262C12.7454 21.3411 17.7818 21.2043 23.0202 21.5526C23.1272 22.3689 23.1741 23.192 23.1603 24.0153C23.1537 24.7084 23.1832 25.4014 23.2486 26.0914Z" fill="#482FF7"/>
<path d="M21.7499 24.2797C21.5755 24.2 21.3821 24.1714 21.1922 24.1972C21.1502 24.1987 21.1086 24.2003 21.0684 24.2006C20.7036 24.2029 20.3387 24.209 19.9746 24.2151C19.5767 24.2216 19.1787 24.2287 18.7807 24.2299C17.9349 24.2334 17.089 24.2359 16.2432 24.237C14.9614 24.2397 13.636 24.2424 12.3323 24.2516C11.9995 24.2596 11.6673 24.2848 11.337 24.3266C11.2502 24.3364 11.1635 24.3456 11.0768 24.3546C10.996 24.3599 10.9173 24.3825 10.8461 24.4214C10.7749 24.4601 10.7129 24.5139 10.6644 24.5789C10.6287 24.632 10.6052 24.6923 10.5955 24.7555C10.5857 24.8187 10.5899 24.8832 10.6079 24.9446C10.6638 25.149 10.8657 25.3033 11.0505 25.4319C11.1506 25.4859 11.2662 25.5037 11.3778 25.482C11.4084 25.4796 11.4388 25.4771 11.4672 25.4771C12.7718 25.4771 14.0761 25.4771 15.2332 25.4771H16.036L17.4136 25.5441C18.6472 25.6045 19.8123 25.6615 20.9553 25.707C21.0073 25.7092 21.0622 25.7107 21.119 25.7107C21.3606 25.7198 21.6014 25.6762 21.8248 25.5832C22.0394 25.4815 22.2817 25.1486 22.2479 24.9191C22.2103 24.6632 21.9633 24.4082 21.7499 24.2797Z" fill="#482FF7"/>
<path d="M11.441 23.5176L11.968 23.5895C12.6253 23.6795 13.3048 23.7727 13.9767 23.8418C14.0416 23.8486 14.1069 23.8518 14.1721 23.8517C14.3997 23.8495 14.626 23.8165 14.845 23.7538C15.0342 23.7006 15.1755 23.4538 15.204 23.2963C15.2347 23.1269 15.0724 22.9204 14.9435 22.8366C14.7874 22.7444 14.6124 22.6892 14.4319 22.6753C13.9994 22.6311 13.5581 22.5958 13.132 22.5616C12.9687 22.5485 12.8055 22.5354 12.6425 22.5221L12.5148 22.5115L12.5107 22.5415C12.4321 22.5415 12.3534 22.5408 12.2748 22.5397C11.9591 22.5369 11.6326 22.5339 11.3106 22.5521C11.165 22.5602 10.8805 22.7226 10.8809 22.8993C10.9014 23.0793 10.9783 23.2479 11.1005 23.3812C11.193 23.4678 11.3145 23.5164 11.441 23.5176Z" fill="#482FF7"/>
</svg>
