<svg width="30" height="27" viewBox="0 0 30 27" fill="none" xmlns="http://www.w3.org/2000/svg">
<path d="M26.3738 9.96592C26.4275 9.99461 26.4844 10.0168 26.5435 10.032C28.2899 10.1004 29.1273 11.238 29.5936 12.6874C30.0067 13.971 29.9977 15.3145 29.8504 16.6538C29.7558 17.5154 29.7055 18.3818 29.6186 19.2444C29.5513 19.9846 29.3142 20.6999 28.9253 21.3364C28.55 21.9433 28.0286 22.3768 27.3024 22.4772C26.2629 22.621 25.2174 22.7227 24.1739 22.8379C23.9842 22.8588 23.7922 22.8583 23.5212 22.8717C23.6363 23.3931 23.7402 23.8769 23.8503 24.3593C23.9397 24.7513 24.046 25.1396 24.1255 25.5334C24.169 25.718 24.1804 25.9083 24.1592 26.0966C24.1403 26.2888 24.0544 26.4686 23.9163 26.6056C23.7783 26.7425 23.5964 26.8281 23.4017 26.8478C23.2066 26.8704 23.0098 26.8222 22.8481 26.7121C22.6865 26.6022 22.5709 26.4378 22.523 26.2499C22.4072 25.7564 22.3188 25.257 22.2583 24.7539C22.1659 24.174 22.0813 23.5929 21.9968 23.0352H7.79774C7.67548 23.7423 7.56048 24.4459 7.42956 25.1466C7.37191 25.5012 7.28874 25.8512 7.18066 26.1942C6.98987 26.7524 6.5823 27.0205 6.13468 26.9328C5.6764 26.8432 5.37626 26.3769 5.49287 25.781C5.63873 25.0354 5.86154 24.3046 6.04958 23.5669C6.09564 23.3857 6.1358 23.2031 6.19894 22.9352C5.53128 22.8617 4.9014 22.8104 4.27843 22.7182C3.68461 22.6385 3.09574 22.5261 2.51458 22.3817C1.41287 22.0922 0.719616 21.3824 0.581541 20.2546C0.406813 18.8275 0.289069 17.3935 0.160659 15.9612C0.102165 15.3086 0.0415495 14.6527 0.0477002 13.9989C0.0365954 13.4296 0.0959412 12.8611 0.224432 12.306C0.669913 10.6316 2.12874 9.6333 3.88154 9.73424C4.04723 9.74377 4.21266 9.759 4.39718 9.77349C4.19785 7.70712 4.30503 5.68224 4.47876 3.65811C4.61959 2.01668 5.40227 1.06004 6.99854 0.589148C8.24561 0.22118 9.53585 0.127665 10.8206 0.1185C14.5999 0.0926143 18.3794 0.115415 22.1589 0.130897C22.61 0.123964 23.0604 0.166304 23.502 0.257199C24.8696 0.569681 25.7237 1.4275 25.9833 2.78642C26.1716 3.71988 26.2949 4.66493 26.3524 5.61497C26.416 6.8826 26.3718 8.15557 26.3738 9.4263C26.3742 9.6132 26.3738 9.8002 26.3738 9.96592ZM23.4071 12.4423C23.527 12.1971 23.6601 11.9584 23.806 11.7274C24.046 11.3796 24.4386 11.0868 24.5456 10.7097C24.6594 10.3083 24.4944 9.83627 24.4891 9.39461C24.473 8.0399 24.5054 6.68408 24.4585 5.33074C24.4138 4.52845 24.3248 3.72915 24.192 2.93641C24.0916 2.2515 23.6461 1.85009 22.971 1.71571C22.656 1.65374 22.3352 1.62395 22.0139 1.62678C20.3185 1.63979 18.6232 1.65774 16.9281 1.6928C14.7398 1.73825 12.5504 1.76982 10.3646 1.87225C9.42853 1.91609 8.49426 2.09408 7.57029 2.26549C6.79129 2.40978 6.38609 2.91038 6.25555 3.70292C5.89354 5.90206 5.7463 8.11694 5.6735 10.3389C5.67377 10.5027 5.72816 10.662 5.8284 10.7926C6.41584 11.4995 6.81225 12.3418 6.98071 13.2407C6.99001 13.2887 7.01448 13.3324 7.05061 13.3656C7.8827 13.2074 8.65181 12.9825 9.43319 12.9269C12.1505 12.7337 14.8706 12.5587 17.5922 12.4563C19.4962 12.3844 21.4045 12.4423 23.4071 12.4423ZM16.0986 21.2159V21.1649C18.5891 21.1649 21.0799 21.1864 23.57 21.1542C24.5542 21.1418 25.5377 21.018 26.5198 20.9287C26.7798 20.9128 27.0283 20.818 27.2313 20.6571C27.4344 20.4962 27.5819 20.2772 27.6538 20.0303C27.7453 19.7297 27.7959 19.4184 27.8043 19.1047C27.8432 18.429 27.8043 17.7459 27.8856 17.0761C28.0488 15.8789 28.0716 14.6672 27.9538 13.4648C27.8879 12.9382 27.6771 12.4397 27.3442 12.0229C27.1002 11.6988 26.7795 11.5941 26.3881 11.624C25.6769 11.6782 25.0567 12.2212 24.8526 13.0465C24.6643 13.806 24.5168 14.5759 24.3731 15.3451C24.2309 16.1061 23.798 16.645 23.1498 17.052C22.6414 17.3729 22.0588 17.5612 21.4566 17.5998C20.1078 17.6944 18.7595 17.8325 17.4091 17.8556C14.7906 17.9006 12.1701 17.9121 9.55129 17.8654C8.68317 17.8501 7.81568 17.632 6.95422 17.4729C6.121 17.319 5.73478 16.7298 5.62168 15.9582C5.54222 15.4157 5.52574 14.8637 5.4921 14.3153C5.437 13.4177 5.30986 12.5457 4.7214 11.8064C4.21642 11.1722 3.57815 10.9934 2.84071 11.3276C2.31489 11.566 1.88234 11.9258 1.77012 12.5155C1.64368 13.0704 1.57605 13.6371 1.56829 14.2059C1.59453 15.2835 1.69669 16.3602 1.78719 17.4358C1.84932 18.1736 1.95564 18.9078 2.02255 19.6454C2.07765 20.2523 2.38769 20.6195 2.99146 20.7461C3.11529 20.7797 3.24102 20.8059 3.36803 20.8247C4.88472 20.9577 6.40004 21.1646 7.91924 21.1987C10.6442 21.2596 13.372 21.2159 16.0986 21.2159ZM22.9792 14.0988C22.6601 14.0415 22.3383 14.0006 22.0149 13.9763C17.742 13.9253 13.4746 14.0547 9.21263 14.3646C8.66723 14.4037 8.12373 14.5789 7.59867 14.7485C7.22135 14.8707 7.2472 15.2192 7.27043 15.5536C7.29365 15.888 7.50124 15.9841 7.77488 16.0156C8.4768 16.0962 9.17821 16.206 9.88277 16.2345C13.8116 16.3933 17.7326 16.094 21.6568 15.9805C22.1276 15.9669 22.5105 15.7646 22.6837 15.3413C22.8309 14.9821 22.8702 14.5794 22.9792 14.0988Z" fill="#574B90"/>
</svg>
