<svg width="30" height="30" viewBox="0 0 30 30" fill="none" xmlns="http://www.w3.org/2000/svg">
<path d="M29.6133 18.131C29.442 19.4022 28.8826 20.5423 28.3177 21.6618C27.3641 23.5784 26.0273 25.2636 24.3956 26.6054C22.4674 28.1856 20.2624 29.1318 17.8524 29.5685C16.3585 29.8393 14.8535 30.0364 13.3278 29.9563C9.64944 29.7631 6.4743 28.4339 3.89369 25.6436C2.79877 24.4399 1.8681 23.0874 1.1275 21.6234C0.699849 20.8006 0.539283 19.94 0.395234 19.058C0.129 17.4262 -0.0348471 15.7959 0.140174 14.1281C0.356247 12.0683 0.90657 10.1377 1.9013 8.34338C3.10724 6.1265 4.75956 4.20298 6.74661 2.70275C8.72539 1.22083 10.9649 0.46163 13.3846 0.159747C15.9497 -0.181534 18.5564 0.0991307 20.9984 0.979447C23.3943 1.84857 25.5326 3.17472 26.9785 5.39886C28.4245 7.623 29.4278 10.0249 29.7683 12.7433C30.051 14.9988 29.7618 17.0283 29.6133 18.131ZM28.2158 14.7685C28.2037 13.1851 28.0594 11.6191 27.5035 10.1467C27.0454 8.93355 26.5012 7.08535 25.5745 6.12761C24.287 4.27715 22.4948 3.14733 20.4652 2.40059C18.1511 1.53163 15.6649 1.26772 13.2281 1.63238C10.7382 2.00355 8.50738 2.9479 6.63147 4.70321C6.07791 5.22229 5.55054 5.77036 5.05143 6.34537C2.93175 8.78277 1.78884 11.6939 1.79005 16.4828C1.79078 19.4684 3.2162 22.0206 5.25778 24.2018C7.42483 26.5172 10.0373 27.6779 13.0927 27.9372C14.5765 28.0628 16.0392 27.8959 17.4984 27.6631C21.8616 26.9671 24.9761 24.5295 26.9842 20.4817C28.1946 18.0419 28.1427 15.6652 28.2158 14.7685Z" fill="#1F4287"/>
<path d="M16.3019 14.4797C16.6008 14.4797 16.825 14.4797 17.0492 14.4797C18.9389 14.4823 20.8286 14.4817 22.7182 14.4922C22.9655 14.4942 23.2116 14.5272 23.4512 14.5905C23.5752 14.6171 23.6866 14.6874 23.766 14.7893C23.8456 14.8913 23.8884 15.0187 23.8874 15.1496C23.8997 15.2803 23.8688 15.4114 23.7995 15.5216C23.7303 15.6317 23.6268 15.7143 23.5062 15.7556C23.1931 15.8629 22.8658 15.9195 22.5359 15.9233C20.688 15.9062 18.8403 15.8631 16.9927 15.8298C16.5982 15.8226 16.2032 15.8313 15.8093 15.8106C15.6032 15.8033 15.3993 15.7653 15.2038 15.6976C14.8948 15.5834 14.7695 15.339 14.7927 14.9899C14.8413 14.2636 14.8752 13.5361 14.9011 12.8086C14.9851 10.4505 15.0603 8.09206 15.1467 5.73399C15.1662 5.49925 15.2023 5.26626 15.2546 5.03693C15.3116 4.72212 15.4897 4.53961 15.809 4.54024C16.1393 4.54087 16.2909 4.76343 16.348 5.06029C16.3945 5.29102 16.4192 5.52588 16.4216 5.76158C16.4194 8.29313 16.4118 10.8247 16.3987 13.3564C16.3968 13.6959 16.3417 14.0352 16.3019 14.4797Z" fill="#1F4287"/>
</svg>
