<svg width="30" height="29" viewBox="0 0 30 29" fill="none" xmlns="http://www.w3.org/2000/svg">
<path d="M0.655186 1.53803C0.7636 1.5996 0.876873 1.65224 0.99384 1.69546C1.25192 1.78766 1.50982 1.88043 1.76753 1.97373C2.48863 2.23363 3.23426 2.50283 3.97467 2.74933C4.93796 3.0701 5.92409 3.37404 6.87779 3.66787L7.25863 3.78523C7.43933 3.82807 7.60249 3.92537 7.726 4.06389C7.84952 4.20239 7.92741 4.37543 7.94918 4.55962C8.02603 4.98259 8.11356 5.41017 8.19849 5.82342C8.2752 6.19728 8.35452 6.58362 8.42534 6.96445C8.53585 7.55903 8.64851 8.15331 8.7633 8.74736C9.06577 10.3273 9.3785 11.9611 9.62248 13.5762C9.75946 14.4789 9.84164 15.4067 9.92274 16.3042C9.99616 17.1237 10.0722 17.9712 10.1886 18.8006L10.2196 19.0206C10.3681 20.0739 10.5085 21.0682 10.4945 22.1121C10.4685 24.0636 11.2467 24.8834 13.2701 25.0358C14.8139 25.152 16.3677 25.1924 17.9168 25.1924C19.7288 25.1924 21.5333 25.1378 23.3062 25.0831C24.7446 25.039 26.2332 24.9934 27.6962 24.9782H27.7324C27.9202 24.9845 28.1081 24.9664 28.2914 24.9241L28.3827 24.8992C28.6614 24.8386 28.9294 24.7358 29.1772 24.5943C29.3525 24.4878 29.4969 24.337 29.5958 24.1573C29.6947 23.9774 29.7446 23.7749 29.7405 23.5699C29.7307 23.3732 29.6695 23.1825 29.5629 23.017C29.4564 22.8513 29.3081 22.7164 29.1332 22.6259C28.7599 22.4333 28.3447 22.3363 27.9247 22.3435C26.8151 22.3621 25.6887 22.3954 24.599 22.4274C23.1769 22.4693 21.7065 22.5122 20.2609 22.523C18.6385 22.5353 16.9883 22.4998 15.392 22.4647C14.7665 22.4509 14.1409 22.4381 13.5152 22.4263C13.3923 22.4201 13.27 22.4054 13.1492 22.382C13.0961 22.3732 13.0396 22.3637 12.9778 22.3545L12.4719 19.7491L12.9171 19.7062C13.3063 19.6684 13.6641 19.6337 14.0222 19.6029L16.0991 19.4249C18.7232 19.1992 21.4369 18.9659 24.1064 18.7458C25.139 18.6605 25.8268 18.1658 26.2092 17.2333L26.3284 16.9407C26.5557 16.3466 26.8194 15.7668 27.1176 15.2048C27.9258 13.7595 28.5181 12.2008 29.0903 10.6932L29.238 10.305C29.5591 9.46268 29.9258 8.33936 29.9124 7.11781C29.9011 6.11211 29.444 5.62677 28.4301 5.54469C28.2877 5.53334 28.1492 5.53252 27.9962 5.53334C26.8564 5.53844 25.7165 5.54244 24.5768 5.54536C21.7087 5.55426 18.7429 5.56357 15.8261 5.59886C14.681 5.61254 13.519 5.67774 12.3952 5.7408C11.8521 5.7713 11.309 5.80186 10.7658 5.82676C10.6478 5.83196 10.5262 5.83054 10.3975 5.82917L10.3052 5.82822C10.2687 5.67539 10.2327 5.52375 10.1972 5.37336C10.0978 4.95245 10.0038 4.55481 9.89998 4.15059C9.6293 3.09592 9.02096 2.44234 8.04055 2.1522C6.56548 1.71597 5.0726 1.24689 3.62959 0.793423C2.93233 0.574555 2.23482 0.356418 1.53711 0.138918C1.39185 0.0952639 1.24196 0.0687111 1.09053 0.0598345C0.756691 0.0383581 0.297385 0.068618 0.165467 0.588702C0.0645088 0.989094 0.224365 1.2996 0.655186 1.53803ZM10.6204 7.22708C10.7718 7.21996 10.9218 7.21203 11.0695 7.20437C11.5099 7.18152 11.9259 7.15977 12.3466 7.15841C13.2658 7.15594 14.2002 7.16032 15.1039 7.16456C15.871 7.16839 16.6381 7.17073 17.4053 7.17163C18.6943 7.17073 19.9833 7.16831 21.2725 7.16429C23.0046 7.15983 24.7369 7.15728 26.4694 7.15674C26.8366 7.15674 27.2135 7.18315 27.6127 7.21051C27.7601 7.22091 27.9121 7.23133 28.0707 7.24104C28.0111 7.44322 27.9569 7.6403 27.9038 7.83222C27.781 8.32306 27.6244 8.80481 27.4351 9.27403C26.9283 10.4432 26.3765 11.6178 25.8432 12.7539C25.6428 13.1806 25.4431 13.6076 25.2439 14.0348C24.9851 14.5917 24.7242 15.1476 24.4414 15.7503L24.0511 16.5821L12.1771 17.706C11.9997 14.5699 11.5036 11.2307 10.6204 7.22708Z" fill="#FF1F5A"/>
<path d="M25.5205 28.8268C26.0439 28.8235 26.5447 28.6135 26.9136 28.2427C27.0728 28.0879 27.1995 27.9031 27.2866 27.699C27.3736 27.4949 27.4191 27.2757 27.4205 27.0539C27.4132 26.1163 26.5135 25.254 25.5326 25.2446H25.5144C25.0317 25.2433 24.5676 25.4307 24.2211 25.7666C23.8748 26.1025 23.6739 26.5604 23.661 27.0423C23.6563 27.2703 23.6974 27.497 23.7822 27.7088C23.8669 27.9205 23.9935 28.1132 24.1541 28.2752C24.3325 28.4533 24.5447 28.5938 24.7783 28.6886C25.0118 28.7833 25.262 28.8303 25.514 28.8269L25.5205 28.8268Z" fill="#FF1F5A"/>
<path d="M14.3048 28.961H14.3185C14.7803 28.9547 15.2221 28.7723 15.5533 28.4508C15.8846 28.1293 16.0799 27.6935 16.0994 27.2328C16.1121 26.2368 15.2254 25.2778 14.275 25.2596C13.8157 25.2663 13.3774 25.453 13.0547 25.7795C12.6796 26.1331 12.46 26.6207 12.4438 27.1355C12.4476 27.3697 12.4976 27.6009 12.5911 27.8158C12.6846 28.0307 12.8198 28.225 12.9888 28.3875C13.3346 28.7445 13.8076 28.9506 14.3048 28.961Z" fill="#FF1F5A"/>
</svg>
