<svg width="30" height="27" viewBox="0 0 30 27" fill="none" xmlns="http://www.w3.org/2000/svg">
<path d="M28.3276 19.3046C27.9281 19.0503 27.5017 18.8401 27.0563 18.6778C26.852 18.5945 26.6415 18.5084 26.4302 18.4124L26.3854 17.7685C26.3474 17.2234 26.3065 16.6401 26.2681 16.0561C26.242 15.6605 26.2185 15.2643 26.195 14.8686C26.1469 14.0598 26.0969 13.2233 26.0266 12.4023C25.9729 11.7738 25.8925 11.7042 25.2507 11.7178C24.2862 11.7397 23.3059 11.769 22.3578 11.7973C21.3115 11.8287 20.2296 11.861 19.1655 11.8834C18.3749 11.8998 17.5944 11.8963 16.7677 11.8917C16.4155 11.8898 16.0598 11.888 15.6972 11.8878L15.8245 7.76378C17.9028 7.4429 19.1415 6.21258 19.5072 4.10606C19.7831 2.51683 19.0219 1.19577 17.5207 0.658369C16.9318 0.441741 16.3259 0.2741 15.7091 0.157178C14.6568 -0.0333792 13.8225 0.123945 13.2293 0.624483C12.2752 1.4302 11.6771 2.2824 11.4002 3.22986C10.9557 4.75303 11.4242 6.08445 12.7194 6.97895C12.97 7.14082 13.2345 7.2801 13.51 7.39512C13.6253 7.44704 13.7406 7.49898 13.8534 7.55518C13.9708 7.61269 14.0895 7.66591 14.1518 7.69343V12.0646C13.5779 12.1056 13.0123 12.1452 12.4549 12.1835C11.1182 12.2761 9.85573 12.3636 8.5746 12.469C7.42678 12.563 6.26199 12.6787 5.13556 12.7906C4.70548 12.8333 4.27547 12.8757 3.84556 12.9177C3.34521 12.9662 3.07978 13.2401 3.07808 13.7095C3.07625 14.2235 3.08486 14.6468 3.10547 15.0418C3.15334 15.962 3.20643 16.882 3.25925 17.7971L3.3186 18.8304C1.79173 19.6312 0.818037 20.7211 0.342602 22.1614C0.00177644 23.1939 0.0517303 24.2253 0.483339 25.0645C0.689949 25.4582 0.974397 25.8062 1.31958 26.0877C1.66478 26.3692 2.06358 26.5783 2.49204 26.7024C2.9832 26.8609 3.49605 26.9428 4.01238 26.9453C5.04596 26.938 6.04872 26.5942 6.8676 25.9665C8.62847 24.6656 8.73699 22.4909 8.25191 20.8895C7.85591 19.5818 6.91847 18.8191 5.46595 18.6224C5.31908 18.6026 5.17182 18.5849 5.01504 18.5662L4.84012 18.5451L4.66665 14.2082C5.92378 13.9065 13.3071 13.4223 14.2638 13.5765L14.0187 18.4622L13.9002 18.5064C13.7858 18.5491 13.6739 18.5909 13.5611 18.6316C12.4875 19.0179 11.5802 19.7603 10.9916 20.7337C10.6005 21.3769 10.4155 22.1235 10.4611 22.8739C10.5068 23.6243 10.7809 24.343 11.2471 24.9346C12.3622 26.3625 14.4881 26.9772 16.417 26.4303C18.0231 25.9749 19.1943 24.5045 19.4008 22.6846C19.6176 20.7735 18.8523 19.5006 17.0613 18.793C16.8468 18.7082 16.6219 18.6431 16.4044 18.58C16.3032 18.5508 16.2019 18.5214 16.1016 18.49L15.6451 18.3472L15.4755 13.4676C17.5202 13.2292 23.9505 13.1831 24.7452 13.3472V14.3184C24.7452 15.5226 24.7452 16.7149 24.7433 17.907C24.7409 18.0113 24.7328 18.1153 24.719 18.2186C24.7141 18.263 24.7087 18.3095 24.7039 18.3577L24.5793 18.3993C24.4692 18.4361 24.3593 18.4727 24.2492 18.509C23.4057 18.7804 22.6521 19.275 22.0694 19.94C21.6507 20.4353 21.3548 21.0215 21.2056 21.6515C21.0564 22.2816 21.0581 22.9376 21.2104 23.5668C21.4171 24.3467 21.98 25.3864 23.4861 25.9105C25.4133 26.5807 27.2204 26.201 28.7116 24.812C29.1138 24.4436 29.429 23.9911 29.6347 23.4872C29.8405 22.9833 29.9317 22.4403 29.9018 21.8971C29.851 21.176 29.5352 20.141 28.3276 19.3046ZM27.6765 23.6831C27.0367 24.3458 26.2026 24.6731 24.9731 24.7444C24.9243 24.7384 24.8725 24.7331 24.8187 24.7274C24.6898 24.7144 24.5565 24.7003 24.4236 24.6747C23.5919 24.5152 22.9563 24.0863 22.6339 23.4675C22.3114 22.8487 22.3261 22.0858 22.6741 21.3187C23.1025 20.3746 23.8306 19.7494 24.7797 19.5108C24.8971 19.4825 25.0175 19.4686 25.1382 19.4697C25.5491 19.4873 25.9528 19.5829 26.3275 19.7512C26.8416 19.9954 27.3059 20.3319 27.6971 20.7439C28.5293 21.5722 28.5209 22.8085 27.6765 23.6831ZM14.974 19.8128C15.1827 19.8906 15.3997 19.958 15.6092 20.0234C15.947 20.1207 16.2779 20.2406 16.5994 20.3822C17.4097 20.7628 17.771 21.3519 17.771 22.2925C17.771 23.9021 16.831 24.9604 15.1911 25.1972C13.6722 25.416 12.2285 24.5759 11.8333 23.2423C11.7298 22.9349 11.6956 22.6086 11.7329 22.2865C11.7702 21.9643 11.8781 21.6543 12.0491 21.3784C12.2893 21.0124 12.5653 20.6709 12.873 20.3589C13.3043 19.903 13.7656 19.6767 14.2695 19.6767C14.5107 19.6797 14.7492 19.7258 14.974 19.8128ZM14.125 1.4668C14.2962 1.37786 14.4851 1.32773 14.6781 1.32C14.7289 1.31953 14.7795 1.32538 14.8287 1.33738C15.5365 1.51667 16.2328 1.73876 16.9134 2.0024C17.7042 2.31043 18.0848 2.94156 18.0143 3.82789C17.8818 5.48748 16.6721 6.53061 14.8564 6.55177C14.7955 6.5349 14.7192 6.51724 14.6324 6.49712C14.3339 6.43645 14.0421 6.34725 13.7609 6.23076C12.4703 5.65078 12.0373 4.5626 12.5727 3.24518C12.9073 2.42012 13.4296 1.82183 14.125 1.4668ZM2.93369 20.4902C3.27686 20.2768 3.67482 20.167 4.07943 20.1739C4.47153 20.1767 4.85867 20.2614 5.21591 20.4222C6.01156 20.7751 6.55195 21.4103 6.66295 22.1209C6.69204 22.3064 6.70417 22.4933 6.71382 22.6435C6.7176 22.7005 6.72099 22.7513 6.72465 22.7937C6.7116 23.9984 6.15073 24.8454 5.10034 25.243C4.18325 25.5901 3.41525 25.6048 2.68391 25.2892C1.83112 24.9212 1.40734 24.2567 1.45873 23.3681C1.51691 22.3592 1.95099 21.4534 2.78564 20.5991C2.8248 20.5625 2.86788 20.5305 2.91412 20.5032L2.93369 20.4902Z" fill="#17B978"/>
</svg>
